<svg width="233" height="64" viewBox="0 0 233 64" fill="none" xmlns="http://www.w3.org/2000/svg">
<mask id="mask0_1658_4382" style="mask-type:luminance" maskUnits="userSpaceOnUse" x="0" y="0" width="63" height="64">
<path d="M62.7667 0.00585938H0V63.1735H62.7667V0.00585938Z" fill="white"/>
</mask>
<g mask="url(#mask0_1658_4382)">
<path d="M55.751 53.0019H38.7883V48.8393H55.751C56.5513 48.8393 57.3202 48.5154 57.8851 47.9161C58.45 47.333 58.7638 46.5394 58.7638 45.6971V7.31063C58.7638 6.48459 58.45 5.69095 57.8851 5.09167C57.3202 4.50858 56.5513 4.16845 55.751 4.16845H20.2564C19.4562 4.16845 18.6873 4.49238 18.1224 5.09167C17.5575 5.67475 17.2436 6.4684 17.2436 7.31063V13.433H13.2266V7.31063C13.2266 5.36701 13.9641 3.52057 15.2822 2.14384C16.6003 0.767111 18.3891 0.00585938 20.2564 0.00585938H55.751C57.6183 0.00585938 59.4072 0.767111 60.7253 2.14384C62.0434 3.52057 62.7809 5.36701 62.7809 7.31063V45.7133C62.7809 47.6569 62.0434 49.5034 60.7253 50.8801C59.4072 52.2568 57.6183 53.0181 55.751 53.0181V53.0019Z" fill="white"/>
<path d="M5.25594 63.1737C4.92641 63.1737 4.59689 63.0928 4.29875 62.9308C4.00061 62.7688 3.74954 62.5259 3.57693 62.2343C3.38863 61.9428 3.27879 61.6026 3.2631 61.2625C3.24741 60.9224 3.29448 60.566 3.43571 60.2421C3.43571 60.2097 4.75381 57.1647 5.63254 54.4274C5.72669 54.1521 5.80515 53.893 5.8993 53.6176C6.49558 51.836 6.91926 50.5402 6.79372 48.5156C6.6525 46.0537 5.20887 42.539 3.92215 40.482L3.48278 39.7693C2.07053 37.518 1.05057 35.8659 0.658281 34.3272C-0.926578 28.1724 0.73674 23.5239 2.40006 20.7056C5.67962 15.1501 11.4855 11.2791 17.1973 10.858C22.5482 10.453 30.598 12.4939 34.3954 15.2149C37.0002 17.0776 38.9303 20.1388 39.7776 22.1796C40.7034 24.3823 41.4566 28.4639 41.4566 29.954C41.4566 30.6829 41.3625 31.3956 41.2369 32.1082C41.0643 33.161 41.0173 33.5983 41.2369 34.0194C41.5351 34.6025 42.1941 35.6067 42.7747 36.5138C43.5279 37.6637 44.1713 38.6517 44.4694 39.332C45.662 42.0207 43.4652 43.7537 42.508 44.4826C42.2883 44.6608 42.1 44.7903 41.9431 44.9199L41.6606 45.1305C41.6606 45.1305 41.6292 45.2762 41.6135 45.3572C40.9859 48.7586 40.1071 52.5162 38.5223 54.6218C36.8433 56.8246 34.4738 57.6506 31.006 57.2295C26.9575 56.7274 24.1958 55.0105 24.0859 54.9457C23.6466 54.6542 23.3327 54.1845 23.2072 53.6662C23.0817 53.1317 23.1758 52.581 23.4426 52.1113C23.7093 51.6416 24.1487 51.3015 24.6665 51.1719C25.1687 51.0423 25.7179 51.1233 26.1729 51.3824C27.8206 52.2895 29.6251 52.8726 31.4767 53.0831C34.3012 53.4232 34.9917 52.5324 35.3526 52.0465C36.5608 50.4592 37.3768 46.0213 37.6592 44.5798C37.7063 44.1911 37.8005 43.8185 37.926 43.446C38.2712 42.539 38.8361 42.1179 39.5579 41.5672C39.7148 41.4538 39.8875 41.3242 40.0914 41.1622C40.217 41.0651 40.4367 40.8869 40.625 40.7411C40.3425 40.239 39.8404 39.4616 39.4481 38.8623C38.7733 37.8257 38.0829 36.7729 37.6906 35.9793C36.8276 34.2624 37.0786 32.6913 37.2983 31.4117C37.3925 30.9258 37.4552 30.4561 37.4709 29.954C37.4709 29.1604 36.859 25.5809 36.1371 23.8316C35.6507 22.6817 34.1914 20.1064 32.1515 18.6325C29.1387 16.4783 21.9048 14.6804 17.5268 15.0044C13.0704 15.3283 8.50412 18.4219 5.86792 22.876C4.61258 24.9978 3.37294 28.5125 4.59689 33.242C4.83227 34.1328 5.78946 35.6877 6.91926 37.4856L7.35862 38.1982C8.89641 40.6925 10.6539 44.8875 10.8579 48.2241C11.0305 51.0747 10.3871 53.0345 9.75945 54.9296C9.68099 55.1725 9.58684 55.4317 9.50838 55.6908C8.56688 58.6224 7.23309 61.7484 7.18602 61.878C7.0291 62.2505 6.77803 62.5583 6.44851 62.785C6.11898 63.0118 5.74238 63.1252 5.35009 63.1252L5.25594 63.1737Z" fill="white"/>
</g>
<path d="M82.9758 40.4219C82.9758 41.1899 83.1144 41.8405 83.3918 42.3739C83.6691 42.9072 84.0318 43.3445 84.4798 43.6859C84.9491 44.0059 85.4931 44.2512 86.1118 44.4219C86.7304 44.5712 87.3704 44.6459 88.0318 44.6459C88.4798 44.6459 88.9598 44.6139 89.4718 44.5499C89.9838 44.4645 90.4638 44.3152 90.9118 44.1019C91.3598 43.8885 91.7331 43.6005 92.0318 43.2379C92.3304 42.8539 92.4798 42.3739 92.4798 41.7979C92.4798 41.1792 92.2771 40.6779 91.8718 40.2939C91.4878 39.9099 90.9758 39.5899 90.3358 39.3339C89.6958 39.0779 88.9704 38.8539 88.1598 38.6619C87.3491 38.4699 86.5278 38.2565 85.6958 38.0219C84.8424 37.8085 84.0104 37.5525 83.1998 37.2539C82.3891 36.9339 81.6638 36.5285 81.0238 36.0379C80.3838 35.5472 79.8611 34.9392 79.4557 34.2139C79.0718 33.4672 78.8798 32.5712 78.8798 31.5259C78.8798 30.3525 79.1251 29.3392 79.6158 28.4859C80.1278 27.6112 80.7891 26.8859 81.5998 26.3099C82.4104 25.7339 83.3278 25.3072 84.3518 25.0299C85.3758 24.7525 86.3998 24.6139 87.4238 24.6139C88.6184 24.6139 89.7598 24.7525 90.8478 25.0299C91.9571 25.2859 92.9384 25.7125 93.7917 26.3099C94.6451 26.9072 95.3171 27.6752 95.8078 28.6139C96.3198 29.5312 96.5758 30.6512 96.5758 31.9739H91.7118C91.6691 31.2912 91.5198 30.7259 91.2638 30.2779C91.0291 29.8299 90.7091 29.4779 90.3038 29.2219C89.8984 28.9659 89.4291 28.7845 88.8958 28.6779C88.3838 28.5712 87.8184 28.5179 87.1998 28.5179C86.7944 28.5179 86.3891 28.5605 85.9838 28.6459C85.5784 28.7312 85.2051 28.8805 84.8638 29.0939C84.5438 29.3072 84.2771 29.5739 84.0638 29.8939C83.8504 30.2139 83.7438 30.6192 83.7438 31.1099C83.7438 31.5579 83.8291 31.9205 83.9998 32.1979C84.1704 32.4752 84.5011 32.7312 84.9918 32.9659C85.5038 33.2005 86.1971 33.4352 87.0718 33.6699C87.9678 33.9045 89.1304 34.2032 90.5598 34.5659C90.9864 34.6512 91.5731 34.8112 92.3198 35.0459C93.0878 35.2592 93.8451 35.6112 94.5918 36.1019C95.3384 36.5925 95.9784 37.2539 96.5118 38.0859C97.0664 38.8965 97.3438 39.9419 97.3438 41.2219C97.3438 42.2672 97.1411 43.2379 96.7358 44.1339C96.3304 45.0299 95.7224 45.8085 94.9118 46.4699C94.1224 47.1099 93.1304 47.6112 91.9358 47.9739C90.7624 48.3365 89.3971 48.5179 87.8398 48.5179C86.5811 48.5179 85.3544 48.3579 84.1598 48.0379C82.9864 47.7392 81.9411 47.2592 81.0238 46.5979C80.1278 45.9365 79.4131 45.0939 78.8798 44.0699C78.3464 43.0459 78.0904 41.8299 78.1118 40.4219H82.9758ZM106.253 39.1099L97.869 25.1579H103.501L108.845 34.1819L114.157 25.1579H119.757L111.277 39.2379V48.0059H106.253V39.1099ZM121.677 25.1579H126.669L136.205 40.4859H136.269V25.1579H140.973V48.0059H135.949L126.445 32.7099H126.381V48.0059H121.677V25.1579ZM145.396 25.1579H162.484V29.3819H150.42V34.2779H161.492V38.1819H150.42V43.7819H162.74V48.0059H145.396V25.1579ZM171.17 35.4939H176.674C177.826 35.4939 178.69 35.2379 179.266 34.7259C179.842 34.2139 180.13 33.3819 180.13 32.2299C180.13 31.1205 179.842 30.3205 179.266 29.8299C178.69 29.3179 177.826 29.0619 176.674 29.0619H171.17V35.4939ZM166.146 25.1579H178.466C179.49 25.1579 180.407 25.3285 181.218 25.6699C182.05 25.9899 182.754 26.4379 183.33 27.0139C183.927 27.5899 184.375 28.2619 184.674 29.0299C184.994 29.7765 185.154 30.5872 185.154 31.4619C185.154 32.8059 184.866 33.9685 184.29 34.9499C183.735 35.9312 182.818 36.6779 181.538 37.1899V37.2539C182.156 37.4245 182.668 37.6912 183.074 38.0539C183.479 38.3952 183.81 38.8112 184.066 39.3019C184.322 39.7712 184.503 40.2939 184.61 40.8699C184.738 41.4459 184.823 42.0219 184.866 42.5979C184.887 42.9605 184.908 43.3872 184.93 43.8779C184.951 44.3685 184.983 44.8699 185.026 45.3819C185.09 45.8939 185.175 46.3845 185.282 46.8539C185.41 47.3019 185.591 47.6859 185.826 48.0059H180.802C180.524 47.2805 180.354 46.4165 180.29 45.4139C180.226 44.4112 180.13 43.4512 180.002 42.5339C179.831 41.3392 179.468 40.4645 178.914 39.9099C178.359 39.3552 177.452 39.0779 176.194 39.0779H171.17V48.0059H166.146V25.1579ZM205.751 45.4139C204.855 46.5659 203.863 47.3765 202.775 47.8459C201.687 48.2939 200.589 48.5179 199.479 48.5179C197.73 48.5179 196.151 48.2192 194.743 47.6219C193.357 47.0032 192.183 46.1605 191.223 45.0939C190.263 44.0272 189.527 42.7792 189.015 41.3499C188.503 39.8992 188.247 38.3419 188.247 36.6779C188.247 34.9712 188.503 33.3925 189.015 31.9419C189.527 30.4699 190.263 29.1899 191.223 28.1019C192.183 27.0139 193.357 26.1605 194.743 25.5419C196.151 24.9232 197.73 24.6139 199.479 24.6139C200.653 24.6139 201.783 24.7952 202.871 25.1579C203.981 25.4992 204.973 26.0112 205.847 26.6939C206.743 27.3765 207.479 28.2192 208.055 29.2219C208.631 30.2245 208.983 31.3765 209.111 32.6779H204.311C204.013 31.3979 203.437 30.4379 202.583 29.7979C201.73 29.1579 200.695 28.8379 199.479 28.8379C198.349 28.8379 197.389 29.0619 196.599 29.5099C195.81 29.9365 195.17 30.5232 194.679 31.2699C194.189 31.9952 193.826 32.8272 193.591 33.7659C193.378 34.7045 193.271 35.6752 193.271 36.6779C193.271 37.6379 193.378 38.5765 193.591 39.4939C193.826 40.3899 194.189 41.2005 194.679 41.9259C195.17 42.6512 195.81 43.2379 196.599 43.6859C197.389 44.1125 198.349 44.3259 199.479 44.3259C201.143 44.3259 202.423 43.9099 203.319 43.0779C204.237 42.2245 204.77 40.9979 204.919 39.3979H199.863V35.6539H209.463V48.0059H206.263L205.751 45.4139ZM219.441 39.1099L211.056 25.1579H216.689L222.033 34.1819L227.345 25.1579H232.945L224.465 39.2379V48.0059H219.441V39.1099Z" fill="white"/>
<path d="M82.2601 7.08355H84.6541L89.6041 19.9355H87.1921L85.9861 16.5335H80.8561L79.6501 19.9355H77.3281L82.2601 7.08355ZM81.4681 14.8235H85.3921L83.4661 9.29755H83.4121L81.4681 14.8235ZM90.828 7.08355H96.966C98.382 7.08355 99.444 7.38955 100.152 8.00155C100.86 8.61355 101.214 9.46555 101.214 10.5575C101.214 11.1695 101.124 11.6795 100.944 12.0875C100.764 12.4835 100.554 12.8075 100.314 13.0595C100.074 13.2995 99.834 13.4735 99.594 13.5815C99.366 13.6895 99.198 13.7615 99.09 13.7975V13.8335C99.282 13.8575 99.486 13.9175 99.702 14.0135C99.93 14.1095 100.14 14.2655 100.332 14.4815C100.524 14.6855 100.68 14.9555 100.8 15.2915C100.932 15.6275 100.998 16.0475 100.998 16.5515C100.998 17.3075 101.052 17.9975 101.16 18.6215C101.28 19.2335 101.46 19.6715 101.7 19.9355H99.288C99.12 19.6595 99.018 19.3535 98.982 19.0175C98.958 18.6815 98.946 18.3575 98.946 18.0455C98.946 17.4575 98.91 16.9535 98.838 16.5335C98.766 16.1015 98.634 15.7475 98.442 15.4715C98.25 15.1835 97.986 14.9735 97.65 14.8415C97.326 14.7095 96.906 14.6435 96.39 14.6435H93.078V19.9355H90.828V7.08355ZM93.078 12.9335H96.768C97.488 12.9335 98.034 12.7655 98.406 12.4295C98.778 12.0815 98.964 11.5655 98.964 10.8815C98.964 10.4735 98.904 10.1435 98.784 9.89155C98.664 9.62755 98.496 9.42355 98.28 9.27955C98.076 9.13555 97.836 9.03955 97.56 8.99155C97.296 8.94355 97.02 8.91955 96.732 8.91955H93.078V12.9335ZM101.961 7.08355H112.365V9.02755H108.279V19.9355H106.029V9.02755H101.961V7.08355ZM113.801 7.08355H116.051V12.1955H121.901V7.08355H124.151V19.9355H121.901V14.1395H116.051V19.9355H113.801V7.08355ZM130.284 7.08355H132.678L137.628 19.9355H135.216L134.01 16.5335H128.88L127.674 19.9355H125.352L130.284 7.08355ZM129.492 14.8235H133.416L131.49 9.29755H131.436L129.492 14.8235ZM138.851 7.08355H141.101V17.9915H147.635V19.9355H138.851V7.08355ZM149.187 7.08355H151.437V17.9915H157.971V19.9355H149.187V7.08355Z" fill="white"/>
</svg>
