<svg width="488" height="605" viewBox="0 0 488 605" fill="none" xmlns="http://www.w3.org/2000/svg">
<g opacity="0.81" filter="url(#filter0_f_3667_386)">
<path d="M176.281 352C143.474 356.572 254.719 387.5 125.149 387.5L55 541.5L424 550L433.5 55L267 71.5C254.188 85.4192 226.498 94.4091 232.159 120.5C239.235 153.114 351.82 141.19 351.82 218C351.82 249.242 382.044 317.436 342 331C301.956 344.564 209.089 347.428 176.281 352Z" fill="url(#paint0_linear_3667_386)"/>
</g>
<circle cx="328.774" cy="230.552" r="2.8392" transform="rotate(70.7626 328.774 230.552)" fill="white"/>
<circle cx="332.931" cy="242.466" r="2.8392" transform="rotate(70.7626 332.931 242.466)" fill="white"/>
<circle cx="337.091" cy="254.38" r="2.8392" transform="rotate(70.7626 337.091 254.38)" fill="white"/>
<circle cx="341.247" cy="266.294" r="2.8392" transform="rotate(70.7626 341.247 266.294)" fill="white"/>
<circle cx="345.403" cy="278.208" r="2.8392" transform="rotate(70.7626 345.403 278.208)" fill="white"/>
<circle cx="349.563" cy="290.122" r="2.8392" transform="rotate(70.7626 349.563 290.122)" fill="white"/>
<circle cx="353.72" cy="302.036" r="2.8392" transform="rotate(70.7626 353.72 302.036)" fill="white"/>
<circle cx="316.86" cy="234.709" r="2.8392" transform="rotate(70.7626 316.86 234.709)" fill="white"/>
<circle cx="321.017" cy="246.623" r="2.8392" transform="rotate(70.7626 321.017 246.623)" fill="white"/>
<circle cx="325.177" cy="258.537" r="2.8392" transform="rotate(70.7626 325.177 258.537)" fill="white"/>
<circle cx="329.333" cy="270.451" r="2.8392" transform="rotate(70.7626 329.333 270.451)" fill="white"/>
<circle cx="333.489" cy="282.365" r="2.8392" transform="rotate(70.7626 333.489 282.365)" fill="white"/>
<circle cx="337.649" cy="294.279" r="2.8392" transform="rotate(70.7626 337.649 294.279)" fill="white"/>
<circle cx="341.806" cy="306.193" r="2.8392" transform="rotate(70.7626 341.806 306.193)" fill="white"/>
<circle cx="304.946" cy="238.867" r="2.8392" transform="rotate(70.7626 304.946 238.867)" fill="white"/>
<circle cx="309.102" cy="250.781" r="2.8392" transform="rotate(70.7626 309.102 250.781)" fill="white"/>
<circle cx="313.263" cy="262.695" r="2.8392" transform="rotate(70.7626 313.263 262.695)" fill="white"/>
<circle cx="317.419" cy="274.609" r="2.8392" transform="rotate(70.7626 317.419 274.609)" fill="white"/>
<circle cx="321.575" cy="286.523" r="2.8392" transform="rotate(70.7626 321.575 286.523)" fill="white"/>
<circle cx="325.735" cy="298.437" r="2.8392" transform="rotate(70.7626 325.735 298.437)" fill="white"/>
<circle cx="329.892" cy="310.351" r="2.8392" transform="rotate(70.7626 329.892 310.351)" fill="white"/>
<circle cx="293.032" cy="243.024" r="2.8392" transform="rotate(70.7626 293.032 243.024)" fill="white"/>
<circle cx="297.188" cy="254.938" r="2.8392" transform="rotate(70.7626 297.188 254.938)" fill="white"/>
<circle cx="301.349" cy="266.852" r="2.8392" transform="rotate(70.7626 301.349 266.852)" fill="white"/>
<circle cx="305.505" cy="278.767" r="2.8392" transform="rotate(70.7626 305.505 278.767)" fill="white"/>
<circle cx="309.661" cy="290.681" r="2.8392" transform="rotate(70.7626 309.661 290.681)" fill="white"/>
<circle cx="313.821" cy="302.595" r="2.8392" transform="rotate(70.7626 313.821 302.595)" fill="white"/>
<circle cx="317.977" cy="314.509" r="2.8392" transform="rotate(70.7626 317.977 314.509)" fill="white"/>
<circle cx="281.118" cy="247.183" r="2.8392" transform="rotate(70.7626 281.118 247.183)" fill="white"/>
<circle cx="285.274" cy="259.097" r="2.8392" transform="rotate(70.7626 285.274 259.097)" fill="white"/>
<circle cx="289.435" cy="271.011" r="2.8392" transform="rotate(70.7626 289.435 271.011)" fill="white"/>
<circle cx="293.591" cy="282.925" r="2.8392" transform="rotate(70.7626 293.591 282.925)" fill="white"/>
<circle cx="297.747" cy="294.839" r="2.8392" transform="rotate(70.7626 297.747 294.839)" fill="white"/>
<circle cx="301.907" cy="306.753" r="2.8392" transform="rotate(70.7626 301.907 306.753)" fill="white"/>
<circle cx="306.063" cy="318.667" r="2.8392" transform="rotate(70.7626 306.063 318.667)" fill="white"/>
<circle cx="269.204" cy="251.34" r="2.8392" transform="rotate(70.7626 269.204 251.34)" fill="white"/>
<circle cx="273.36" cy="263.254" r="2.8392" transform="rotate(70.7626 273.36 263.254)" fill="white"/>
<circle cx="277.52" cy="275.168" r="2.8392" transform="rotate(70.7626 277.52 275.168)" fill="white"/>
<circle cx="281.677" cy="287.082" r="2.8392" transform="rotate(70.7626 281.677 287.082)" fill="white"/>
<circle cx="285.833" cy="298.996" r="2.8392" transform="rotate(70.7626 285.833 298.996)" fill="white"/>
<circle cx="289.993" cy="310.91" r="2.8392" transform="rotate(70.7626 289.993 310.91)" fill="white"/>
<circle cx="294.149" cy="322.824" r="2.8392" transform="rotate(70.7626 294.149 322.824)" fill="white"/>
<circle cx="257.29" cy="255.498" r="2.8392" transform="rotate(70.7626 257.29 255.498)" fill="white"/>
<circle cx="261.446" cy="267.412" r="2.8392" transform="rotate(70.7626 261.446 267.412)" fill="white"/>
<circle cx="265.606" cy="279.326" r="2.8392" transform="rotate(70.7626 265.606 279.326)" fill="white"/>
<circle cx="269.763" cy="291.24" r="2.8392" transform="rotate(70.7626 269.763 291.24)" fill="white"/>
<circle cx="273.919" cy="303.154" r="2.8392" transform="rotate(70.7626 273.919 303.154)" fill="white"/>
<circle cx="278.079" cy="315.068" r="2.8392" transform="rotate(70.7626 278.079 315.068)" fill="white"/>
<circle cx="282.235" cy="326.982" r="2.8392" transform="rotate(70.7626 282.235 326.982)" fill="white"/>
<defs>
<filter id="filter0_f_3667_386" x="0.909447" y="0.909447" width="486.681" height="603.181" filterUnits="userSpaceOnUse" color-interpolation-filters="sRGB">
<feFlood flood-opacity="0" result="BackgroundImageFix"/>
<feBlend mode="normal" in="SourceGraphic" in2="BackgroundImageFix" result="shape"/>
<feGaussianBlur stdDeviation="27.0453" result="effect1_foregroundBlur_3667_386"/>
</filter>
<linearGradient id="paint0_linear_3667_386" x1="411.852" y1="203.797" x2="76.9967" y2="353.448" gradientUnits="userSpaceOnUse">
<stop offset="0.0236659" stop-color="#87FB2D"/>
<stop offset="0.332417" stop-color="#2496FF"/>
<stop offset="0.766339" stop-color="#EC95D8"/>
<stop offset="1" stop-color="#E342D9"/>
</linearGradient>
</defs>
</svg>
