<svg width="3830" height="1718" viewBox="0 0 3830 1718" fill="none" xmlns="http://www.w3.org/2000/svg">
<g opacity="0.81" filter="url(#filter0_f_3602_385)">
<path d="M1967.39 705.677C1865.39 720.664 1869.89 889.591 1854.89 892.089L1687.39 1111L3191.89 1123H3575L3652.5 804L3237.5 316.5L3341.5 -42L2639.89 -104C2600.06 -58.3751 2514.29 63.7465 2531.89 149.268C2553.89 256.171 2927.89 172.692 2927.89 424.462C2927.89 526.868 2873.39 584.065 2748.89 628.524C2624.39 672.984 2069.39 690.691 1967.39 705.677Z" fill="url(#paint0_linear_3602_385)"/>
</g>
<g opacity="0.86" filter="url(#filter1_f_3602_385)">
<path d="M1248.9 944C1132.69 932.053 258.262 1124.17 178.5 1049C167.257 1012.94 496.633 788.076 506.5 669.5C518.131 529.736 773.705 377.506 786.095 373.013C814.721 362.632 899.818 537.261 985.9 629.029C1071.98 720.796 1067 679.739 1207.8 729.829C1348.6 779.918 1099.02 614.059 1356.29 786.732C1613.56 959.404 1607.52 978.72 1573.24 969.098C1538.96 959.476 1394.15 958.934 1248.9 944Z" fill="url(#paint1_linear_3602_385)"/>
</g>
<g opacity="0.6" filter="url(#filter2_bf_3602_385)">
<circle cx="3102.9" cy="622" r="196" fill="url(#paint2_radial_3602_385)" fill-opacity="0.5"/>
</g>
<g opacity="0.7" filter="url(#filter3_bf_3602_385)">
<circle cx="2859.9" cy="94" r="137" fill="url(#paint3_radial_3602_385)" fill-opacity="0.35"/>
</g>
<circle cx="921.074" cy="435.172" r="6.11389" transform="rotate(-11.13 921.074 435.172)" fill="white"/>
<circle cx="947.734" cy="429.926" r="6.11389" transform="rotate(-11.13 947.734 429.926)" fill="white"/>
<circle cx="974.398" cy="424.682" r="6.11389" transform="rotate(-11.13 974.398 424.682)" fill="white"/>
<circle cx="1001.06" cy="419.436" r="6.11389" transform="rotate(-11.13 1001.06 419.436)" fill="white"/>
<circle cx="1027.72" cy="414.192" r="6.11389" transform="rotate(-11.13 1027.72 414.192)" fill="white"/>
<circle cx="1054.38" cy="408.946" r="6.11389" transform="rotate(-11.13 1054.38 408.946)" fill="white"/>
<circle cx="1081.04" cy="403.7" r="6.11389" transform="rotate(-11.13 1081.04 403.7)" fill="white"/>
<circle cx="926.32" cy="461.834" r="6.11389" transform="rotate(-11.13 926.32 461.834)" fill="white"/>
<circle cx="952.98" cy="456.588" r="6.11389" transform="rotate(-11.13 952.98 456.588)" fill="white"/>
<circle cx="979.644" cy="451.344" r="6.11389" transform="rotate(-11.13 979.644 451.344)" fill="white"/>
<circle cx="1006.3" cy="446.098" r="6.11389" transform="rotate(-11.13 1006.3 446.098)" fill="white"/>
<circle cx="1032.96" cy="440.852" r="6.11389" transform="rotate(-11.13 1032.96 440.852)" fill="white"/>
<circle cx="1059.63" cy="435.608" r="6.11389" transform="rotate(-11.13 1059.63 435.608)" fill="white"/>
<circle cx="1086.29" cy="430.362" r="6.11389" transform="rotate(-11.13 1086.29 430.362)" fill="white"/>
<circle cx="931.566" cy="488.496" r="6.11389" transform="rotate(-11.13 931.566 488.496)" fill="white"/>
<circle cx="958.226" cy="483.25" r="6.11389" transform="rotate(-11.13 958.226 483.25)" fill="white"/>
<circle cx="984.886" cy="478.004" r="6.11389" transform="rotate(-11.13 984.886 478.004)" fill="white"/>
<circle cx="1011.55" cy="472.76" r="6.11389" transform="rotate(-11.13 1011.55 472.76)" fill="white"/>
<circle cx="1038.21" cy="467.514" r="6.11389" transform="rotate(-11.13 1038.21 467.514)" fill="white"/>
<circle cx="1064.87" cy="462.27" r="6.11389" transform="rotate(-11.13 1064.87 462.27)" fill="white"/>
<circle cx="1091.53" cy="457.024" r="6.11389" transform="rotate(-11.13 1091.53 457.024)" fill="white"/>
<circle cx="936.808" cy="515.157" r="6.11389" transform="rotate(-11.13 936.808 515.157)" fill="white"/>
<circle cx="963.472" cy="509.912" r="6.11389" transform="rotate(-11.13 963.472 509.912)" fill="white"/>
<circle cx="990.132" cy="504.666" r="6.11389" transform="rotate(-11.13 990.132 504.666)" fill="white"/>
<circle cx="1016.8" cy="499.422" r="6.11389" transform="rotate(-11.13 1016.8 499.422)" fill="white"/>
<circle cx="1043.46" cy="494.176" r="6.11389" transform="rotate(-11.13 1043.46 494.176)" fill="white"/>
<circle cx="1070.12" cy="488.93" r="6.11389" transform="rotate(-11.13 1070.12 488.93)" fill="white"/>
<circle cx="1096.78" cy="483.686" r="6.11389" transform="rotate(-11.13 1096.78 483.686)" fill="white"/>
<circle cx="942.054" cy="541.819" r="6.11389" transform="rotate(-11.13 942.054 541.819)" fill="white"/>
<circle cx="968.718" cy="536.575" r="6.11389" transform="rotate(-11.13 968.718 536.575)" fill="white"/>
<circle cx="995.378" cy="531.328" r="6.11389" transform="rotate(-11.13 995.378 531.328)" fill="white"/>
<circle cx="1022.04" cy="526.084" r="6.11389" transform="rotate(-11.13 1022.04 526.084)" fill="white"/>
<circle cx="1048.7" cy="520.838" r="6.11389" transform="rotate(-11.13 1048.7 520.838)" fill="white"/>
<circle cx="1075.36" cy="515.592" r="6.11389" transform="rotate(-11.13 1075.36 515.592)" fill="white"/>
<circle cx="1102.03" cy="510.348" r="6.11389" transform="rotate(-11.13 1102.03 510.348)" fill="white"/>
<circle cx="947.3" cy="568.481" r="6.11389" transform="rotate(-11.13 947.3 568.481)" fill="white"/>
<circle cx="973.96" cy="563.237" r="6.11389" transform="rotate(-11.13 973.96 563.237)" fill="white"/>
<circle cx="1000.62" cy="557.991" r="6.11389" transform="rotate(-11.13 1000.62 557.991)" fill="white"/>
<circle cx="1027.28" cy="552.745" r="6.11389" transform="rotate(-11.13 1027.28 552.745)" fill="white"/>
<circle cx="1053.95" cy="547.5" r="6.11389" transform="rotate(-11.13 1053.95 547.5)" fill="white"/>
<circle cx="1080.61" cy="542.254" r="6.11389" transform="rotate(-11.13 1080.61 542.254)" fill="white"/>
<circle cx="1107.27" cy="537.01" r="6.11389" transform="rotate(-11.13 1107.27 537.01)" fill="white"/>
<circle cx="952.546" cy="595.143" r="6.11389" transform="rotate(-11.13 952.546 595.143)" fill="white"/>
<circle cx="979.206" cy="589.897" r="6.11389" transform="rotate(-11.13 979.206 589.897)" fill="white"/>
<circle cx="1005.87" cy="584.653" r="6.11389" transform="rotate(-11.13 1005.87 584.653)" fill="white"/>
<circle cx="1032.53" cy="579.407" r="6.11389" transform="rotate(-11.13 1032.53 579.407)" fill="white"/>
<circle cx="1059.19" cy="574.162" r="6.11389" transform="rotate(-11.13 1059.19 574.162)" fill="white"/>
<circle cx="1085.85" cy="568.916" r="6.11389" transform="rotate(-11.13 1085.85 568.916)" fill="white"/>
<circle cx="1112.52" cy="563.67" r="6.11389" transform="rotate(-11.13 1112.52 563.67)" fill="white"/>
<circle cx="2689.58" cy="211.676" r="6.11389" transform="rotate(84.7226 2689.58 211.676)" fill="white"/>
<circle cx="2692.08" cy="238.734" r="6.11389" transform="rotate(84.7226 2692.08 238.734)" fill="white"/>
<circle cx="2694.58" cy="265.791" r="6.11389" transform="rotate(84.7226 2694.58 265.791)" fill="white"/>
<circle cx="2697.08" cy="292.85" r="6.11389" transform="rotate(84.7226 2697.08 292.85)" fill="white"/>
<circle cx="2699.58" cy="319.906" r="6.11389" transform="rotate(84.7226 2699.58 319.906)" fill="white"/>
<circle cx="2702.08" cy="346.965" r="6.11389" transform="rotate(84.7226 2702.08 346.965)" fill="white"/>
<circle cx="2704.58" cy="374.021" r="6.11389" transform="rotate(84.7226 2704.58 374.021)" fill="white"/>
<circle cx="2662.53" cy="214.176" r="6.11389" transform="rotate(84.7226 2662.53 214.176)" fill="white"/>
<circle cx="2665.03" cy="241.232" r="6.11389" transform="rotate(84.7226 2665.03 241.232)" fill="white"/>
<circle cx="2667.53" cy="268.291" r="6.11389" transform="rotate(84.7226 2667.53 268.291)" fill="white"/>
<circle cx="2670.03" cy="295.348" r="6.11389" transform="rotate(84.7226 2670.03 295.348)" fill="white"/>
<circle cx="2672.53" cy="322.406" r="6.11389" transform="rotate(84.7226 2672.53 322.406)" fill="white"/>
<circle cx="2675.02" cy="349.463" r="6.11389" transform="rotate(84.7226 2675.02 349.463)" fill="white"/>
<circle cx="2677.52" cy="376.521" r="6.11389" transform="rotate(84.7226 2677.52 376.521)" fill="white"/>
<circle cx="2635.47" cy="216.674" r="6.11389" transform="rotate(84.7226 2635.47 216.674)" fill="white"/>
<circle cx="2637.97" cy="243.732" r="6.11389" transform="rotate(84.7226 2637.97 243.732)" fill="white"/>
<circle cx="2640.47" cy="270.789" r="6.11389" transform="rotate(84.7226 2640.47 270.789)" fill="white"/>
<circle cx="2642.97" cy="297.848" r="6.11389" transform="rotate(84.7226 2642.97 297.848)" fill="white"/>
<circle cx="2645.47" cy="324.904" r="6.11389" transform="rotate(84.7226 2645.47 324.904)" fill="white"/>
<circle cx="2647.97" cy="351.963" r="6.11389" transform="rotate(84.7226 2647.97 351.963)" fill="white"/>
<circle cx="2650.46" cy="379.019" r="6.11389" transform="rotate(84.7226 2650.46 379.019)" fill="white"/>
<circle cx="2608.41" cy="219.174" r="6.11389" transform="rotate(84.7226 2608.41 219.174)" fill="white"/>
<circle cx="2610.91" cy="246.23" r="6.11389" transform="rotate(84.7226 2610.91 246.23)" fill="white"/>
<circle cx="2613.41" cy="273.289" r="6.11389" transform="rotate(84.7226 2613.41 273.289)" fill="white"/>
<circle cx="2615.91" cy="300.346" r="6.11389" transform="rotate(84.7226 2615.91 300.346)" fill="white"/>
<circle cx="2618.41" cy="327.404" r="6.11389" transform="rotate(84.7226 2618.41 327.404)" fill="white"/>
<circle cx="2620.91" cy="354.463" r="6.11389" transform="rotate(84.7226 2620.91 354.463)" fill="white"/>
<circle cx="2623.41" cy="381.519" r="6.11389" transform="rotate(84.7226 2623.41 381.519)" fill="white"/>
<circle cx="2581.35" cy="221.674" r="6.11389" transform="rotate(84.7226 2581.35 221.674)" fill="white"/>
<circle cx="2583.85" cy="248.73" r="6.11389" transform="rotate(84.7226 2583.85 248.73)" fill="white"/>
<circle cx="2586.35" cy="275.789" r="6.11389" transform="rotate(84.7226 2586.35 275.789)" fill="white"/>
<circle cx="2588.85" cy="302.846" r="6.11389" transform="rotate(84.7226 2588.85 302.846)" fill="white"/>
<circle cx="2591.35" cy="329.904" r="6.11389" transform="rotate(84.7226 2591.35 329.904)" fill="white"/>
<circle cx="2593.85" cy="356.961" r="6.11389" transform="rotate(84.7226 2593.85 356.961)" fill="white"/>
<circle cx="2596.35" cy="384.019" r="6.11389" transform="rotate(84.7226 2596.35 384.019)" fill="white"/>
<circle cx="2554.29" cy="224.172" r="6.11389" transform="rotate(84.7226 2554.29 224.172)" fill="white"/>
<circle cx="2556.79" cy="251.23" r="6.11389" transform="rotate(84.7226 2556.79 251.23)" fill="white"/>
<circle cx="2559.29" cy="278.287" r="6.11389" transform="rotate(84.7226 2559.29 278.287)" fill="white"/>
<circle cx="2561.79" cy="305.346" r="6.11389" transform="rotate(84.7226 2561.79 305.346)" fill="white"/>
<circle cx="2564.29" cy="332.402" r="6.11389" transform="rotate(84.7226 2564.29 332.402)" fill="white"/>
<circle cx="2566.79" cy="359.461" r="6.11389" transform="rotate(84.7226 2566.79 359.461)" fill="white"/>
<circle cx="2569.29" cy="386.517" r="6.11389" transform="rotate(84.7226 2569.29 386.517)" fill="white"/>
<circle cx="2527.24" cy="226.672" r="6.11389" transform="rotate(84.7226 2527.24 226.672)" fill="white"/>
<circle cx="2529.74" cy="253.728" r="6.11389" transform="rotate(84.7226 2529.74 253.728)" fill="white"/>
<circle cx="2532.24" cy="280.787" r="6.11389" transform="rotate(84.7226 2532.24 280.787)" fill="white"/>
<circle cx="2534.74" cy="307.844" r="6.11389" transform="rotate(84.7226 2534.74 307.844)" fill="white"/>
<circle cx="2537.24" cy="334.902" r="6.11389" transform="rotate(84.7226 2537.24 334.902)" fill="white"/>
<circle cx="2539.74" cy="361.959" r="6.11389" transform="rotate(84.7226 2539.74 361.959)" fill="white"/>
<circle cx="2542.23" cy="389.017" r="6.11389" transform="rotate(84.7226 2542.23 389.017)" fill="white"/>
<circle cx="1927.05" cy="700.125" r="6.11389" transform="rotate(79.5099 1927.05 700.125)" fill="white"/>
<circle cx="1932" cy="726.844" r="6.11389" transform="rotate(79.5099 1932 726.844)" fill="white"/>
<circle cx="1936.95" cy="753.562" r="6.11389" transform="rotate(79.5099 1936.95 753.562)" fill="white"/>
<circle cx="1941.89" cy="780.281" r="6.11389" transform="rotate(79.5099 1941.89 780.281)" fill="white"/>
<circle cx="1946.84" cy="807" r="6.11389" transform="rotate(79.5099 1946.84 807)" fill="white"/>
<circle cx="1951.79" cy="833.719" r="6.11389" transform="rotate(79.5099 1951.79 833.719)" fill="white"/>
<circle cx="1956.73" cy="860.437" r="6.11389" transform="rotate(79.5099 1956.73 860.437)" fill="white"/>
<circle cx="1900.33" cy="705.072" r="6.11389" transform="rotate(79.5099 1900.33 705.072)" fill="white"/>
<circle cx="1905.28" cy="731.791" r="6.11389" transform="rotate(79.5099 1905.28 731.791)" fill="white"/>
<circle cx="1910.23" cy="758.51" r="6.11389" transform="rotate(79.5099 1910.23 758.51)" fill="white"/>
<circle cx="1915.17" cy="785.228" r="6.11389" transform="rotate(79.5099 1915.17 785.228)" fill="white"/>
<circle cx="1920.12" cy="811.947" r="6.11389" transform="rotate(79.5099 1920.12 811.947)" fill="white"/>
<circle cx="1925.07" cy="838.666" r="6.11389" transform="rotate(79.5099 1925.07 838.666)" fill="white"/>
<circle cx="1930.02" cy="865.385" r="6.11389" transform="rotate(79.5099 1930.02 865.385)" fill="white"/>
<circle cx="1873.61" cy="710.019" r="6.11389" transform="rotate(79.5099 1873.61 710.019)" fill="white"/>
<circle cx="1878.56" cy="736.738" r="6.11389" transform="rotate(79.5099 1878.56 736.738)" fill="white"/>
<circle cx="1883.51" cy="763.457" r="6.11389" transform="rotate(79.5099 1883.51 763.457)" fill="white"/>
<circle cx="1888.46" cy="790.176" r="6.11389" transform="rotate(79.5099 1888.46 790.176)" fill="white"/>
<circle cx="1893.4" cy="816.894" r="6.11389" transform="rotate(79.5099 1893.4 816.894)" fill="white"/>
<circle cx="1898.35" cy="843.613" r="6.11389" transform="rotate(79.5099 1898.35 843.613)" fill="white"/>
<circle cx="1903.3" cy="870.332" r="6.11389" transform="rotate(79.5099 1903.3 870.332)" fill="white"/>
<circle cx="1846.89" cy="714.967" r="6.11389" transform="rotate(79.5099 1846.89 714.967)" fill="white"/>
<circle cx="1851.84" cy="741.685" r="6.11389" transform="rotate(79.5099 1851.84 741.685)" fill="white"/>
<circle cx="1856.79" cy="768.404" r="6.11389" transform="rotate(79.5099 1856.79 768.404)" fill="white"/>
<circle cx="1861.74" cy="795.123" r="6.11389" transform="rotate(79.5099 1861.74 795.123)" fill="white"/>
<circle cx="1866.68" cy="821.842" r="6.11389" transform="rotate(79.5099 1866.68 821.842)" fill="white"/>
<circle cx="1871.63" cy="848.56" r="6.11389" transform="rotate(79.5099 1871.63 848.56)" fill="white"/>
<circle cx="1876.58" cy="875.279" r="6.11389" transform="rotate(79.5099 1876.58 875.279)" fill="white"/>
<circle cx="1820.18" cy="719.914" r="6.11389" transform="rotate(79.5099 1820.18 719.914)" fill="white"/>
<circle cx="1825.12" cy="746.633" r="6.11389" transform="rotate(79.5099 1825.12 746.633)" fill="white"/>
<circle cx="1830.07" cy="773.351" r="6.11389" transform="rotate(79.5099 1830.07 773.351)" fill="white"/>
<circle cx="1835.02" cy="800.07" r="6.11389" transform="rotate(79.5099 1835.02 800.07)" fill="white"/>
<circle cx="1839.96" cy="826.789" r="6.11389" transform="rotate(79.5099 1839.96 826.789)" fill="white"/>
<circle cx="1844.91" cy="853.508" r="6.11389" transform="rotate(79.5099 1844.91 853.508)" fill="white"/>
<circle cx="1849.86" cy="880.226" r="6.11389" transform="rotate(79.5099 1849.86 880.226)" fill="white"/>
<circle cx="1793.46" cy="724.861" r="6.11389" transform="rotate(79.5099 1793.46 724.861)" fill="white"/>
<circle cx="1798.41" cy="751.58" r="6.11389" transform="rotate(79.5099 1798.41 751.58)" fill="white"/>
<circle cx="1803.35" cy="778.299" r="6.11389" transform="rotate(79.5099 1803.35 778.299)" fill="white"/>
<circle cx="1808.3" cy="805.017" r="6.11389" transform="rotate(79.5099 1808.3 805.017)" fill="white"/>
<circle cx="1813.25" cy="831.736" r="6.11389" transform="rotate(79.5099 1813.25 831.736)" fill="white"/>
<circle cx="1818.2" cy="858.455" r="6.11389" transform="rotate(79.5099 1818.2 858.455)" fill="white"/>
<circle cx="1823.14" cy="885.174" r="6.11389" transform="rotate(79.5099 1823.14 885.174)" fill="white"/>
<circle cx="1766.74" cy="729.808" r="6.11389" transform="rotate(79.5099 1766.74 729.808)" fill="white"/>
<circle cx="1771.69" cy="756.527" r="6.11389" transform="rotate(79.5099 1771.69 756.527)" fill="white"/>
<circle cx="1776.63" cy="783.246" r="6.11389" transform="rotate(79.5099 1776.63 783.246)" fill="white"/>
<circle cx="1781.58" cy="809.965" r="6.11389" transform="rotate(79.5099 1781.58 809.965)" fill="white"/>
<circle cx="1786.53" cy="836.683" r="6.11389" transform="rotate(79.5099 1786.53 836.683)" fill="white"/>
<circle cx="1791.48" cy="863.402" r="6.11389" transform="rotate(79.5099 1791.48 863.402)" fill="white"/>
<circle cx="1796.42" cy="890.121" r="6.11389" transform="rotate(79.5099 1796.42 890.121)" fill="white"/>
<defs>
<filter id="filter0_f_3602_385" x="1510.09" y="-281.3" width="2319.71" height="1581.6" filterUnits="userSpaceOnUse" color-interpolation-filters="sRGB">
<feFlood flood-opacity="0" result="BackgroundImageFix"/>
<feBlend mode="normal" in="SourceGraphic" in2="BackgroundImageFix" result="shape"/>
<feGaussianBlur stdDeviation="88.65" result="effect1_foregroundBlur_3602_385"/>
</filter>
<filter id="filter1_f_3602_385" x="0.918747" y="195.27" width="1766.62" height="1048.52" filterUnits="userSpaceOnUse" color-interpolation-filters="sRGB">
<feFlood flood-opacity="0" result="BackgroundImageFix"/>
<feBlend mode="normal" in="SourceGraphic" in2="BackgroundImageFix" result="shape"/>
<feGaussianBlur stdDeviation="88.65" result="effect1_foregroundBlur_3602_385"/>
</filter>
<filter id="filter2_bf_3602_385" x="2874.7" y="393.8" width="456.4" height="456.4" filterUnits="userSpaceOnUse" color-interpolation-filters="sRGB">
<feFlood flood-opacity="0" result="BackgroundImageFix"/>
<feGaussianBlur in="BackgroundImageFix" stdDeviation="16.1"/>
<feComposite in2="SourceAlpha" operator="in" result="effect1_backgroundBlur_3602_385"/>
<feBlend mode="normal" in="SourceGraphic" in2="effect1_backgroundBlur_3602_385" result="shape"/>
<feGaussianBlur stdDeviation="1.4" result="effect2_foregroundBlur_3602_385"/>
</filter>
<filter id="filter3_bf_3602_385" x="2690.7" y="-75.2" width="338.4" height="338.4" filterUnits="userSpaceOnUse" color-interpolation-filters="sRGB">
<feFlood flood-opacity="0" result="BackgroundImageFix"/>
<feGaussianBlur in="BackgroundImageFix" stdDeviation="16.1"/>
<feComposite in2="SourceAlpha" operator="in" result="effect1_backgroundBlur_3602_385"/>
<feBlend mode="normal" in="SourceGraphic" in2="effect1_backgroundBlur_3602_385" result="shape"/>
<feGaussianBlur stdDeviation="1.4" result="effect2_foregroundBlur_3602_385"/>
</filter>
<linearGradient id="paint0_linear_3602_385" x1="3093.39" y1="311.619" x2="2124.16" y2="722.795" gradientUnits="userSpaceOnUse">
<stop stop-color="#87FB2D"/>
<stop offset="0.3" stop-color="#2496FF"/>
<stop offset="0.735" stop-color="#EC95D8"/>
<stop offset="1" stop-color="#E342D9"/>
</linearGradient>
<linearGradient id="paint1_linear_3602_385" x1="969.78" y1="712.417" x2="1546.82" y2="759.1" gradientUnits="userSpaceOnUse">
<stop offset="0.12" stop-color="#606DDA"/>
<stop offset="0.615" stop-color="#E342D9"/>
</linearGradient>
<radialGradient id="paint2_radial_3602_385" cx="0" cy="0" r="1" gradientUnits="userSpaceOnUse" gradientTransform="translate(3102.9 622) rotate(90) scale(196)">
<stop offset="0.358772" stop-color="white" stop-opacity="0"/>
<stop offset="1" stop-color="white"/>
</radialGradient>
<radialGradient id="paint3_radial_3602_385" cx="0" cy="0" r="1" gradientUnits="userSpaceOnUse" gradientTransform="translate(2859.9 94) rotate(90) scale(137)">
<stop offset="0.358772" stop-color="white" stop-opacity="0"/>
<stop offset="1" stop-color="white"/>
</radialGradient>
</defs>
</svg>
