<svg width="233" height="64" viewBox="0 0 233 64" fill="none" xmlns="http://www.w3.org/2000/svg">
<mask id="mask0_1690_8730" style="mask-type:luminance" maskUnits="userSpaceOnUse" x="0" y="0" width="63" height="64">
<path d="M62.7667 0H0V63.1676H62.7667V0Z" fill="white"/>
</mask>
<g mask="url(#mask0_1690_8730)">
<path d="M55.751 52.996H38.7883V48.8335H55.751C56.5513 48.8335 57.3202 48.5095 57.8851 47.9102C58.45 47.3271 58.7638 46.5335 58.7638 45.6913V7.30477C58.7638 6.47873 58.45 5.68509 57.8851 5.08581C57.3202 4.50272 56.5513 4.16259 55.751 4.16259H20.2564C19.4562 4.16259 18.6873 4.48652 18.1224 5.08581C17.5575 5.66889 17.2436 6.46254 17.2436 7.30477V13.4272H13.2266V7.30477C13.2266 5.36115 13.9641 3.51471 15.2822 2.13798C16.6003 0.761251 18.3891 0 20.2564 0H55.751C57.6183 0 59.4072 0.761251 60.7253 2.13798C62.0434 3.51471 62.7809 5.36115 62.7809 7.30477V45.7075C62.7809 47.6511 62.0434 49.4975 60.7253 50.8743C59.4072 52.251 57.6183 53.0122 55.751 53.0122V52.996Z" fill="#1C1C1C"/>
<path d="M5.25594 63.1679C4.92641 63.1679 4.59689 63.0869 4.29875 62.9249C4.00061 62.763 3.74954 62.52 3.57693 62.2285C3.38863 61.9369 3.27879 61.5968 3.2631 61.2567C3.24741 60.9165 3.29448 60.5602 3.43571 60.2363C3.43571 60.2039 4.75381 57.1589 5.63254 54.4216C5.72669 54.1462 5.80515 53.8871 5.8993 53.6117C6.49558 51.8301 6.91926 50.5344 6.79372 48.5098C6.6525 46.0478 5.20887 42.5331 3.92215 40.4761L3.48278 39.7635C2.07053 37.5121 1.05057 35.86 0.658281 34.3213C-0.926578 28.1665 0.73674 23.518 2.40006 20.6998C5.67962 15.1443 11.4855 11.2732 17.1973 10.8521C22.5482 10.4472 30.598 12.488 34.3954 15.2091C37.0002 17.0717 38.9303 20.1329 39.7776 22.1737C40.7034 24.3765 41.4566 28.4581 41.4566 29.9482C41.4566 30.677 41.3625 31.3897 41.2369 32.1024C41.0643 33.1551 41.0173 33.5925 41.2369 34.0136C41.5351 34.5967 42.1941 35.6009 42.7747 36.5079C43.5279 37.6579 44.1713 38.6459 44.4694 39.3261C45.662 42.0148 43.4652 43.7479 42.508 44.4767C42.2883 44.6549 42.1 44.7845 41.9431 44.9141L41.6606 45.1246C41.6606 45.1246 41.6292 45.2704 41.6135 45.3514C40.9859 48.7527 40.1071 52.5104 38.5223 54.616C36.8433 56.8187 34.4738 57.6448 31.006 57.2236C26.9575 56.7215 24.1958 55.0047 24.0859 54.9399C23.6466 54.6483 23.3327 54.1786 23.2072 53.6603C23.0817 53.1258 23.1758 52.5751 23.4426 52.1054C23.7093 51.6357 24.1487 51.2956 24.6665 51.166C25.1687 51.0365 25.7179 51.1174 26.1729 51.3766C27.8206 52.2836 29.6251 52.8667 31.4767 53.0773C34.3012 53.4174 34.9917 52.5266 35.3526 52.0407C36.5608 50.4534 37.3768 46.0154 37.6592 44.5739C37.7063 44.1852 37.8005 43.8127 37.926 43.4401C38.2712 42.5331 38.8361 42.112 39.5579 41.5613C39.7148 41.4479 39.8875 41.3184 40.0914 41.1564C40.217 41.0592 40.4367 40.881 40.625 40.7353C40.3425 40.2332 39.8404 39.4557 39.4481 38.8564C38.7733 37.8198 38.0829 36.767 37.6906 35.9734C36.8276 34.2565 37.0786 32.6854 37.2983 31.4059C37.3925 30.92 37.4552 30.4503 37.4709 29.9482C37.4709 29.1545 36.859 25.575 36.1371 23.8258C35.6507 22.6758 34.1914 20.1005 32.1515 18.6266C29.1387 16.4724 21.9048 14.6746 17.5268 14.9985C13.0704 15.3224 8.50412 18.416 5.86792 22.8702C4.61258 24.9919 3.37294 28.5067 4.59689 33.2361C4.83227 34.127 5.78946 35.6819 6.91926 37.4797L7.35862 38.1924C8.89641 40.6867 10.6539 44.8817 10.8579 48.2182C11.0305 51.0688 10.3871 53.0287 9.75945 54.9237C9.68099 55.1666 9.58684 55.4258 9.50838 55.6849C8.56688 58.6166 7.23309 61.7426 7.18602 61.8721C7.0291 62.2447 6.77803 62.5524 6.44851 62.7792C6.11898 63.0059 5.74238 63.1193 5.35009 63.1193L5.25594 63.1679Z" fill="#1C1C1C"/>
</g>
<path d="M82.9758 40.416C82.9758 41.184 83.1144 41.8347 83.3918 42.368C83.6691 42.9013 84.0318 43.3387 84.4798 43.68C84.9491 44 85.4931 44.2453 86.1118 44.416C86.7304 44.5653 87.3704 44.64 88.0318 44.64C88.4798 44.64 88.9598 44.608 89.4718 44.544C89.9838 44.4587 90.4638 44.3093 90.9118 44.096C91.3598 43.8827 91.7331 43.5947 92.0318 43.232C92.3304 42.848 92.4798 42.368 92.4798 41.792C92.4798 41.1733 92.2771 40.672 91.8718 40.288C91.4878 39.904 90.9758 39.584 90.3358 39.328C89.6958 39.072 88.9704 38.848 88.1598 38.656C87.3491 38.464 86.5278 38.2507 85.6958 38.016C84.8424 37.8027 84.0104 37.5467 83.1998 37.248C82.3891 36.928 81.6638 36.5227 81.0238 36.032C80.3838 35.5413 79.8611 34.9333 79.4557 34.208C79.0718 33.4613 78.8798 32.5653 78.8798 31.52C78.8798 30.3467 79.1251 29.3333 79.6158 28.48C80.1278 27.6053 80.7891 26.88 81.5998 26.304C82.4104 25.728 83.3278 25.3013 84.3518 25.024C85.3758 24.7467 86.3998 24.608 87.4238 24.608C88.6184 24.608 89.7598 24.7467 90.8478 25.024C91.9571 25.28 92.9384 25.7067 93.7917 26.304C94.6451 26.9013 95.3171 27.6693 95.8078 28.608C96.3198 29.5253 96.5758 30.6453 96.5758 31.968H91.7118C91.6691 31.2853 91.5198 30.72 91.2638 30.272C91.0291 29.824 90.7091 29.472 90.3038 29.216C89.8984 28.96 89.4291 28.7787 88.8958 28.672C88.3838 28.5653 87.8184 28.512 87.1998 28.512C86.7944 28.512 86.3891 28.5547 85.9838 28.64C85.5784 28.7253 85.2051 28.8747 84.8638 29.088C84.5438 29.3013 84.2771 29.568 84.0638 29.888C83.8504 30.208 83.7438 30.6133 83.7438 31.104C83.7438 31.552 83.8291 31.9147 83.9998 32.192C84.1704 32.4693 84.5011 32.7253 84.9918 32.96C85.5038 33.1947 86.1971 33.4293 87.0718 33.664C87.9678 33.8987 89.1304 34.1973 90.5598 34.56C90.9864 34.6453 91.5731 34.8053 92.3198 35.04C93.0878 35.2533 93.8451 35.6053 94.5918 36.096C95.3384 36.5867 95.9784 37.248 96.5118 38.08C97.0664 38.8907 97.3438 39.936 97.3438 41.216C97.3438 42.2613 97.1411 43.232 96.7358 44.128C96.3304 45.024 95.7224 45.8027 94.9118 46.464C94.1224 47.104 93.1304 47.6053 91.9358 47.968C90.7624 48.3307 89.3971 48.512 87.8398 48.512C86.5811 48.512 85.3544 48.352 84.1598 48.032C82.9864 47.7333 81.9411 47.2533 81.0238 46.592C80.1278 45.9307 79.4131 45.088 78.8798 44.064C78.3464 43.04 78.0904 41.824 78.1118 40.416H82.9758ZM106.253 39.104L97.869 25.152H103.501L108.845 34.176L114.157 25.152H119.757L111.277 39.232V48H106.253V39.104ZM121.677 25.152H126.669L136.205 40.48H136.269V25.152H140.973V48H135.949L126.445 32.704H126.381V48H121.677V25.152ZM145.396 25.152H162.484V29.376H150.42V34.272H161.492V38.176H150.42V43.776H162.74V48H145.396V25.152ZM171.17 35.488H176.674C177.826 35.488 178.69 35.232 179.266 34.72C179.842 34.208 180.13 33.376 180.13 32.224C180.13 31.1147 179.842 30.3147 179.266 29.824C178.69 29.312 177.826 29.056 176.674 29.056H171.17V35.488ZM166.146 25.152H178.466C179.49 25.152 180.407 25.3227 181.218 25.664C182.05 25.984 182.754 26.432 183.33 27.008C183.927 27.584 184.375 28.256 184.674 29.024C184.994 29.7707 185.154 30.5813 185.154 31.456C185.154 32.8 184.866 33.9627 184.29 34.944C183.735 35.9253 182.818 36.672 181.538 37.184V37.248C182.156 37.4187 182.668 37.6853 183.074 38.048C183.479 38.3893 183.81 38.8053 184.066 39.296C184.322 39.7653 184.503 40.288 184.61 40.864C184.738 41.44 184.823 42.016 184.866 42.592C184.887 42.9547 184.908 43.3813 184.93 43.872C184.951 44.3627 184.983 44.864 185.026 45.376C185.09 45.888 185.175 46.3787 185.282 46.848C185.41 47.296 185.591 47.68 185.826 48H180.802C180.524 47.2747 180.354 46.4107 180.29 45.408C180.226 44.4053 180.13 43.4453 180.002 42.528C179.831 41.3333 179.468 40.4587 178.914 39.904C178.359 39.3493 177.452 39.072 176.194 39.072H171.17V48H166.146V25.152ZM205.751 45.408C204.855 46.56 203.863 47.3707 202.775 47.84C201.687 48.288 200.589 48.512 199.479 48.512C197.73 48.512 196.151 48.2133 194.743 47.616C193.357 46.9973 192.183 46.1547 191.223 45.088C190.263 44.0213 189.527 42.7733 189.015 41.344C188.503 39.8933 188.247 38.336 188.247 36.672C188.247 34.9653 188.503 33.3867 189.015 31.936C189.527 30.464 190.263 29.184 191.223 28.096C192.183 27.008 193.357 26.1547 194.743 25.536C196.151 24.9173 197.73 24.608 199.479 24.608C200.653 24.608 201.783 24.7893 202.871 25.152C203.981 25.4933 204.973 26.0053 205.847 26.688C206.743 27.3707 207.479 28.2133 208.055 29.216C208.631 30.2187 208.983 31.3707 209.111 32.672H204.311C204.013 31.392 203.437 30.432 202.583 29.792C201.73 29.152 200.695 28.832 199.479 28.832C198.349 28.832 197.389 29.056 196.599 29.504C195.81 29.9307 195.17 30.5173 194.679 31.264C194.189 31.9893 193.826 32.8213 193.591 33.76C193.378 34.6987 193.271 35.6693 193.271 36.672C193.271 37.632 193.378 38.5707 193.591 39.488C193.826 40.384 194.189 41.1947 194.679 41.92C195.17 42.6453 195.81 43.232 196.599 43.68C197.389 44.1067 198.349 44.32 199.479 44.32C201.143 44.32 202.423 43.904 203.319 43.072C204.237 42.2187 204.77 40.992 204.919 39.392H199.863V35.648H209.463V48H206.263L205.751 45.408ZM219.441 39.104L211.056 25.152H216.689L222.033 34.176L227.345 25.152H232.945L224.465 39.232V48H219.441V39.104Z" fill="#1C1C1C"/>
<path d="M82.2601 7.07769H84.6541L89.6041 19.9297H87.1921L85.9861 16.5277H80.8561L79.6501 19.9297H77.3281L82.2601 7.07769ZM81.4681 14.8177H85.3921L83.4661 9.29169H83.4121L81.4681 14.8177ZM90.828 7.07769H96.966C98.382 7.07769 99.444 7.38369 100.152 7.99569C100.86 8.60769 101.214 9.45969 101.214 10.5517C101.214 11.1637 101.124 11.6737 100.944 12.0817C100.764 12.4777 100.554 12.8017 100.314 13.0537C100.074 13.2937 99.834 13.4677 99.594 13.5757C99.366 13.6837 99.198 13.7557 99.09 13.7917V13.8277C99.282 13.8517 99.486 13.9117 99.702 14.0077C99.93 14.1037 100.14 14.2597 100.332 14.4757C100.524 14.6797 100.68 14.9497 100.8 15.2857C100.932 15.6217 100.998 16.0417 100.998 16.5457C100.998 17.3017 101.052 17.9917 101.16 18.6157C101.28 19.2277 101.46 19.6657 101.7 19.9297H99.288C99.12 19.6537 99.018 19.3477 98.982 19.0117C98.958 18.6757 98.946 18.3517 98.946 18.0397C98.946 17.4517 98.91 16.9477 98.838 16.5277C98.766 16.0957 98.634 15.7417 98.442 15.4657C98.25 15.1777 97.986 14.9677 97.65 14.8357C97.326 14.7037 96.906 14.6377 96.39 14.6377H93.078V19.9297H90.828V7.07769ZM93.078 12.9277H96.768C97.488 12.9277 98.034 12.7597 98.406 12.4237C98.778 12.0757 98.964 11.5597 98.964 10.8757C98.964 10.4677 98.904 10.1377 98.784 9.88569C98.664 9.62169 98.496 9.41769 98.28 9.27369C98.076 9.12969 97.836 9.03369 97.56 8.98569C97.296 8.93769 97.02 8.91369 96.732 8.91369H93.078V12.9277ZM101.961 7.07769H112.365V9.02169H108.279V19.9297H106.029V9.02169H101.961V7.07769ZM113.801 7.07769H116.051V12.1897H121.901V7.07769H124.151V19.9297H121.901V14.1337H116.051V19.9297H113.801V7.07769ZM130.284 7.07769H132.678L137.628 19.9297H135.216L134.01 16.5277H128.88L127.674 19.9297H125.352L130.284 7.07769ZM129.492 14.8177H133.416L131.49 9.29169H131.436L129.492 14.8177ZM138.851 7.07769H141.101V17.9857H147.635V19.9297H138.851V7.07769ZM149.187 7.07769H151.437V17.9857H157.971V19.9297H149.187V7.07769Z" fill="#1C1C1C"/>
</svg>
