<svg width="230" height="231" viewBox="0 0 230 231" fill="none" xmlns="http://www.w3.org/2000/svg">
<mask id="mask0_1690_8643" style="mask-type:luminance" maskUnits="userSpaceOnUse" x="0" y="0" width="230" height="231">
<path d="M229.895 0H0.894531V230.463H229.895V0Z" fill="white"/>
</mask>
<g mask="url(#mask0_1690_8643)">
<path d="M204.304 193.352H142.416V178.166H204.304C207.223 178.166 210.029 176.984 212.09 174.797C214.151 172.67 215.296 169.774 215.296 166.701V26.651C215.296 23.6372 214.151 20.7417 212.09 18.5552C210.029 16.4279 207.223 15.1869 204.304 15.1869H74.8042C71.8845 15.1869 69.0792 16.3688 67.0182 18.5552C64.9572 20.6826 63.8122 23.5781 63.8122 26.651V48.9881H49.1562V26.651C49.1562 19.5598 51.847 12.8232 56.656 7.80028C61.465 2.77737 67.9915 0 74.8042 0H204.304C211.116 0 217.643 2.77737 222.452 7.80028C227.261 12.8232 229.952 19.5598 229.952 26.651V166.761C229.952 173.852 227.261 180.588 222.452 185.611C217.643 190.634 211.116 193.412 204.304 193.412V193.352Z" fill="#1C1C1C"/>
<path d="M20.0695 230.464C18.8673 230.464 17.665 230.169 16.5773 229.578C15.4895 228.987 14.5735 228.1 13.9438 227.037C13.2568 225.973 12.856 224.732 12.7988 223.491C12.7415 222.25 12.9133 220.95 13.4285 219.768C13.4285 219.65 18.2375 208.541 21.4435 198.554C21.787 197.549 22.0733 196.604 22.4168 195.599C24.5923 189.099 26.138 184.371 25.68 176.985C25.1648 168.003 19.8978 155.18 15.2033 147.675L13.6003 145.075C8.44778 136.861 4.72653 130.833 3.29528 125.219C-2.48697 102.764 3.58153 85.8043 9.65003 75.5221C21.6153 55.2532 42.7978 41.1299 63.6368 39.5935C83.159 38.1162 112.528 45.5619 126.383 55.4896C135.886 62.2853 142.928 73.4538 146.02 80.8996C149.397 88.9362 152.145 103.828 152.145 109.264C152.145 111.923 151.802 114.523 151.344 117.124C150.714 120.965 150.542 122.56 151.344 124.097C152.432 126.224 154.836 129.888 156.954 133.197C159.702 137.393 162.05 140.997 163.137 143.479C167.488 153.289 159.473 159.611 155.981 162.271C155.18 162.921 154.493 163.393 153.92 163.866L152.89 164.634C152.89 164.634 152.775 165.166 152.718 165.462C150.428 177.871 147.222 191.581 141.44 199.263C135.314 207.3 126.669 210.313 114.017 208.777C99.2463 206.945 89.1703 200.681 88.7695 200.445C87.1665 199.381 86.0215 197.667 85.5635 195.776C85.1055 193.826 85.449 191.817 86.4223 190.104C87.3955 188.39 88.9985 187.149 90.8878 186.676C92.7198 186.203 94.7235 186.499 96.3838 187.444C102.395 190.754 108.979 192.881 115.734 193.649C126.039 194.89 128.558 191.64 129.875 189.867C134.283 184.076 137.26 167.885 138.291 162.625C138.463 161.207 138.806 159.848 139.264 158.489C140.524 155.18 142.585 153.643 145.218 151.634C145.791 151.22 146.42 150.748 147.165 150.157C147.623 149.802 148.424 149.152 149.111 148.62C148.081 146.788 146.249 143.952 144.817 141.765C142.356 137.983 139.837 134.142 138.405 131.247C135.257 124.983 136.173 119.251 136.974 114.583C137.318 112.81 137.547 111.096 137.604 109.264C137.604 106.369 135.371 93.3091 132.738 86.9271C130.963 82.7314 125.639 73.3357 118.196 67.9582C107.204 60.0988 80.8118 53.5395 64.839 54.7213C48.58 55.9032 31.9203 67.19 22.3023 83.4406C17.7223 91.1818 13.1995 104.005 17.665 121.26C18.5238 124.51 22.016 130.183 26.138 136.742L27.741 139.343C33.3515 148.443 39.7635 163.748 40.5078 175.921C41.1375 186.322 38.7903 193.472 36.5003 200.386C36.214 201.272 35.8705 202.218 35.5843 203.163C32.1493 213.859 27.283 225.264 27.1113 225.737C26.5388 227.096 25.6228 228.219 24.4205 229.046C23.2183 229.873 21.8443 230.287 20.413 230.287L20.0695 230.464Z" fill="#1C1C1C"/>
</g>
</svg>
